<svg width="420.22215576171874px" height="148.54921264648436px" xmlns="http://www.w3.org/2000/svg" viewBox="39.88892211914063 0.7253936767578182 420.22215576171874 148.54921264648436" style="background: rgb(13, 13, 13);" preserveAspectRatio="xMidYMid"><defs><linearGradient id="editing-shadow-gradient1" x1="0" x2="0" y1="0" y2="1"><stop offset="0" stop-color="#000000" stop-opacity="0"></stop><stop offset="0.2" stop-color="#000000" stop-opacity="0"></stop><stop offset="1" stop-color="#000000" stop-opacity="1"></stop></linearGradient><linearGradient id="editing-shadow-gradient2" x1="1.2313537016191705" x2="-0.23135370161917046" y1="-0.1819983600624986" y2="1.1819983600624986"><stop offset="0" stop-color="#ffffff"></stop><stop offset="1" stop-color="#fff200"></stop></linearGradient><filter id="editing-shadow" x="-100%" y="-100%" width="300%" height="300%"><feGaussianBlur stdDeviation="7.19"></feGaussianBlur><feComposite operator="in" in2="SourceGraphic"></feComposite><feGaussianBlur stdDeviation="3.595"></feGaussianBlur></filter></defs><g transform="translate(250,75)"><g transform="translate(-27.7, 10)"><g transform="skewX(45)"><g filter="url(#editing-shadow)"><g transform="translate(-99.94500458240509, 23.744998931884766)"><path d="M33.16 0L16.28 0L5.90-35.70L1.12-35.70L1.12-45.84L26.02-45.84L26.02-35.70L22.71-35.70L28.50-14.87L33.57-35.70L29.80-35.70L29.80-45.84L49.80-45.84L49.80-35.70L44.60-35.70L33.16 0ZM64.31-33.87L64.31-33.87Q60.71-33.87 58.38-35.58L58.38-35.58L58.38-35.58Q56.05-37.29 56.05-40.47L56.05-40.47L56.05-40.47Q56.05-43.66 58.38-45.31L58.38-45.31L58.38-45.31Q60.71-46.96 64.37-46.96L64.37-46.96L64.37-46.96Q68.03-46.96 70.33-45.34L70.33-45.34L70.33-45.34Q72.63-43.72 72.63-40.47L72.63-40.47L72.63-40.47Q72.63-37.29 70.27-35.58L70.27-35.58L70.27-35.58Q67.91-33.87 64.31-33.87L64.31-33.87ZM74.93 0L53.69 0L53.69-8.67L57.41-8.67L57.41-21.95L53.69-21.95L53.69-29.03L71.21-30.86L71.21-8.67L74.93-8.67L74.93 0ZM105.37 0L90.68 0L81.07-21.95L76.82-21.95L76.82-30.86L98.94-30.86L98.94-21.95L95.76-21.95L100.77-7.43L106.32-21.95L102.66-21.95L102.66-30.86L118.30-30.86L118.30-21.95L114.40-21.95L105.37 0ZM138.89 0.53L138.89 0.53Q133.52 0.53 129.56-1.45L129.56-1.45L129.56-1.45Q125.61-3.42 123.49-7.08L123.49-7.08L123.49-7.08Q121.36-10.74 121.36-15.64L121.36-15.64L121.36-15.64Q121.36-20.47 123.43-24.04L123.43-24.04L123.43-24.04Q125.49-27.61 129.24-29.53L129.24-29.53L129.24-29.53Q132.99-31.45 138.00-31.45L138.00-31.45L138.00-31.45Q142.66-31.45 146.20-29.62L146.20-29.62L146.20-29.62Q149.74-27.79 151.69-24.43L151.69-24.43L151.69-24.43Q153.64-21.06 153.64-16.58L153.64-16.58L153.64-16.58Q153.64-15.05 153.16-13.63L153.16-13.63L135.23-13.63L135.23-13.63Q135.23-10.92 137.26-9.29L137.26-9.29L137.26-9.29Q139.30-7.67 142.19-7.67L142.19-7.67L142.19-7.67Q144.37-7.67 147.00-8.44L147.00-8.44L147.00-8.44Q149.62-9.20 152.28-10.80L152.28-10.80L152.75-10.62L152.75-2.89L152.75-2.89Q149.80-1.18 146.67-0.32L146.67-0.32L146.67-0.32Q143.55 0.53 138.89 0.53L138.89 0.53ZM135.23-18.70L142.60-18.70L142.60-19.29L142.60-19.29Q142.60-21.36 141.66-22.83L141.66-22.83L141.66-22.83Q140.72-24.31 138.89-24.31L138.89-24.31L138.89-24.31Q137.35-24.31 136.29-22.80L136.29-22.80L136.29-22.80Q135.23-21.30 135.23-19.53L135.23-19.53L135.23-18.70ZM188.27-17.82L194.23-8.67L198.77-8.67L198.77 0L185.02 0L176.59-12.63L176.59 0L157.71 0L157.71-8.67L162.78-8.67L162.78-35.22L157.71-35.22L157.71-43.07L176.59-44.96L176.59-16.93L182.61-21.95L179.42-21.95L179.42-30.86L197.83-30.86L197.83-21.95L193.23-21.95L188.27-17.82Z" fill="url(#editing-shadow-gradient1)"></path></g></g></g></g><g><g transform="translate(-99.94500458240509, 23.744998931884766)"><path d="M33.16 0L16.28 0L5.90-35.70L1.12-35.70L1.12-45.84L26.02-45.84L26.02-35.70L22.71-35.70L28.50-14.87L33.57-35.70L29.80-35.70L29.80-45.84L49.80-45.84L49.80-35.70L44.60-35.70L33.16 0ZM64.31-33.87L64.31-33.87Q60.71-33.87 58.38-35.58L58.38-35.58L58.38-35.58Q56.05-37.29 56.05-40.47L56.05-40.47L56.05-40.47Q56.05-43.66 58.38-45.31L58.38-45.31L58.38-45.31Q60.71-46.96 64.37-46.96L64.37-46.96L64.37-46.96Q68.03-46.96 70.33-45.34L70.33-45.34L70.33-45.34Q72.63-43.72 72.63-40.47L72.63-40.47L72.63-40.47Q72.63-37.29 70.27-35.58L70.27-35.58L70.27-35.58Q67.91-33.87 64.31-33.87L64.31-33.87ZM74.93 0L53.69 0L53.69-8.67L57.41-8.67L57.41-21.95L53.69-21.95L53.69-29.03L71.21-30.86L71.21-8.67L74.93-8.67L74.93 0ZM105.37 0L90.68 0L81.07-21.95L76.82-21.95L76.82-30.86L98.94-30.86L98.94-21.95L95.76-21.95L100.77-7.43L106.32-21.95L102.66-21.95L102.66-30.86L118.30-30.86L118.30-21.95L114.40-21.95L105.37 0ZM138.89 0.53L138.89 0.53Q133.52 0.53 129.56-1.45L129.56-1.45L129.56-1.45Q125.61-3.42 123.49-7.08L123.49-7.08L123.49-7.08Q121.36-10.74 121.36-15.64L121.36-15.64L121.36-15.64Q121.36-20.47 123.43-24.04L123.43-24.04L123.43-24.04Q125.49-27.61 129.24-29.53L129.24-29.53L129.24-29.53Q132.99-31.45 138.00-31.45L138.00-31.45L138.00-31.45Q142.66-31.45 146.20-29.62L146.20-29.62L146.20-29.62Q149.74-27.79 151.69-24.43L151.69-24.43L151.69-24.43Q153.64-21.06 153.64-16.58L153.64-16.58L153.64-16.58Q153.64-15.05 153.16-13.63L153.16-13.63L135.23-13.63L135.23-13.63Q135.23-10.92 137.26-9.29L137.26-9.29L137.26-9.29Q139.30-7.67 142.19-7.67L142.19-7.67L142.19-7.67Q144.37-7.67 147.00-8.44L147.00-8.44L147.00-8.44Q149.62-9.20 152.28-10.80L152.28-10.80L152.75-10.62L152.75-2.89L152.75-2.89Q149.80-1.18 146.67-0.32L146.67-0.32L146.67-0.32Q143.55 0.53 138.89 0.53L138.89 0.53ZM135.23-18.70L142.60-18.70L142.60-19.29L142.60-19.29Q142.60-21.36 141.66-22.83L141.66-22.83L141.66-22.83Q140.72-24.31 138.89-24.31L138.89-24.31L138.89-24.31Q137.35-24.31 136.29-22.80L136.29-22.80L136.29-22.80Q135.23-21.30 135.23-19.53L135.23-19.53L135.23-18.70ZM188.27-17.82L194.23-8.67L198.77-8.67L198.77 0L185.02 0L176.59-12.63L176.59 0L157.71 0L157.71-8.67L162.78-8.67L162.78-35.22L157.71-35.22L157.71-43.07L176.59-44.96L176.59-16.93L182.61-21.95L179.42-21.95L179.42-30.86L197.83-30.86L197.83-21.95L193.23-21.95L188.27-17.82Z" fill="url(#editing-shadow-gradient2)"></path></g></g></g><style>text {
  font-size: 64px;
  font-family: Arial Black;
  dominant-baseline: central;
  text-anchor: middle;
}</style></svg>